<?xml version="1.0" encoding="UTF-8"?>
<svg version="1.1" xmlns="http://www.w3.org/2000/svg" width="600" height="553">
<path d="M0 0 C0.66773438 0.01256836 1.33546875 0.02513672 2.0234375 0.03808594 C41.53472702 0.89931956 81.1389835 9.41412352 117 26 C118.01416992 26.46599609 119.02833984 26.93199219 120.07324219 27.41210938 C138.71168528 36.02321796 155.97860751 45.13860578 172 58 C173.61616319 59.24059671 175.24069085 60.46961821 176.8659668 61.69824219 C211.29161429 87.80680138 211.29161429 87.80680138 220.421875 103.43359375 C222.582948 106.94801197 225.33518071 109.73069393 228.16015625 112.71875 C230.05717082 115.07088696 231.03287386 117.15374275 232 120 C232.66 120 233.32 120 234 120 C234.268125 120.49886719 234.53625 120.99773437 234.8125 121.51171875 C237.33373026 126.13120971 240.00015008 130.6137729 242.8125 135.0625 C247.00805666 141.83206609 250.53036263 148.83560708 254.00439453 155.99560547 C254.95367592 157.90673842 255.94731493 159.78464146 256.96484375 161.66015625 C267.20939706 180.76301105 273.20810132 201.74238616 277 223 C277.15694336 223.85303711 277.31388672 224.70607422 277.47558594 225.58496094 C286.96178924 278.48329461 278.02319804 334.14218561 253.22802734 381.60546875 C252.20241757 383.60530586 251.23083992 385.61093625 250.30078125 387.65625 C246.6012903 395.65724879 241.97519915 402.90026725 237.125 410.25 C236.13463745 411.75989502 236.13463745 411.75989502 235.12426758 413.30029297 C231.14023882 419.23262266 226.85845865 424.56900553 222 429.80664062 C219.58222497 432.45816539 217.52954991 435.21121512 215.4375 438.125 C211.27831132 443.71794893 206.60565159 448.69289067 201.6875 453.625 C201.00550537 454.31223145 200.32351074 454.99946289 199.62084961 455.70751953 C196.2557701 459.02581007 193.12811381 461.65701649 189 464 C187.40710791 465.42507444 185.84710834 466.88734425 184.3125 468.375 C179.39479287 472.91853377 174.23171078 476.94539054 168.8125 480.875 C168.06460205 481.4220459 167.3167041 481.9690918 166.54614258 482.53271484 C154.71412269 491 154.71412269 491 150 491 C150 491.66 150 492.32 150 493 C140.4179408 498.81086592 130.5581044 503.7083308 120.3125 508.25 C118.64030396 508.9920166 118.64030396 508.9920166 116.93432617 509.74902344 C110.3050723 512.6516064 103.62134136 515.34356266 96.85180664 517.90112305 C94.6379199 518.75419249 92.47972191 519.6506365 90.3203125 520.62890625 C75.76175801 526.64073287 59.49510507 529.51810005 44 532 C43.09121094 532.14566406 42.18242187 532.29132812 41.24609375 532.44140625 C-26.0406313 542.82920386 -94.13793214 530.05213082 -154 498 C-154 497.34 -154 496.68 -154 496 C-154.53496094 495.90074219 -155.06992188 495.80148437 -155.62109375 495.69921875 C-173.97678193 490.3040329 -190.98411507 473.41300448 -205 461 C-205.7425 460.36835938 -206.485 459.73671875 -207.25 459.0859375 C-214.9990439 452.49300095 -222.46381101 445.57332074 -228 437 C-229.64302953 435.31002677 -231.31471312 433.64783606 -233 432 C-237.97150355 426.85644077 -242.31932743 421.96179694 -245.578125 415.578125 C-247.40721979 412.26163444 -249.54892615 409.18292714 -251.6875 406.0625 C-288.59339848 351.3888803 -300.52120688 282.7832522 -288.125 218.38671875 C-286.44631168 210.15028732 -284.40351115 202.05389954 -282 194 C-281.75411133 193.17322754 -281.50822266 192.34645508 -281.25488281 191.49462891 C-275.77563951 173.41037608 -268.81711127 155.66601663 -258.0078125 140.0703125 C-256.4862523 137.7435687 -255.27582625 135.60516732 -254.08203125 133.12109375 C-251.96534121 128.76747074 -249.34769222 124.88733931 -246.5625 120.9375 C-245.86543945 119.93493164 -245.86543945 119.93493164 -245.15429688 118.91210938 C-244.22711561 117.58146849 -243.29568761 116.25377579 -242.35986328 114.92919922 C-241.46945039 113.66599587 -240.58725503 112.39695028 -239.71435547 111.12158203 C-237.10297338 107.34890537 -234.31869203 104.19577751 -231 101 C-228.58211566 98.4790583 -226.19925354 95.92539586 -223.8125 93.375 C-223.14831055 92.66859375 -222.48412109 91.9621875 -221.79980469 91.234375 C-218.88270441 88.12355551 -215.97991084 85.00931405 -213.18359375 81.7890625 C-208.50174783 76.42335144 -203.82540113 72.09368635 -197.953125 68.05859375 C-193.92192533 65.24848499 -190.08304848 62.20761851 -186.23901367 59.14819336 C-182.21697541 56 -182.21697541 56 -180 56 C-180 55.34 -180 54.68 -180 54 C-178.11501843 52.47985357 -176.24917855 51.10588408 -174.25 49.75 C-173.65654785 49.34450928 -173.0630957 48.93901855 -172.45166016 48.52124023 C-167.94053224 45.50081376 -163.31545838 42.98543211 -158.41015625 40.65234375 C-154.97715331 38.98892995 -151.61698816 37.22312477 -148.25244141 35.42675781 C-116.19518205 18.32356521 -84.05049956 8.28044032 -48 3 C-46.62615008 2.78482242 -45.25243541 2.56877814 -43.87890625 2.3515625 C-29.4242255 0.20436557 -14.60127365 -0.36838076 0 0 Z " fill="#125F28" transform="translate(309,12)"/>
<path d="M0 0 C38.62075821 -1.40655514 78.27576628 6.33540797 114 21 C114 21.66 114 22.32 114 23 C114.70705078 23.114646 115.41410156 23.22929199 116.14257812 23.34741211 C130.52310041 26.63168553 145.90548522 35.64238017 158 44 C158.63099609 44.42716309 159.26199219 44.85432617 159.91210938 45.29443359 C169.42877353 51.74576318 178.47491209 58.64631604 187.31640625 65.9921875 C189.9013342 68.13653442 192.54672959 70.16085867 195.25390625 72.1484375 C197.95659114 74.15704385 200.25895004 76.10786027 202.375 78.75 C205.05464845 81.95948803 207.87907205 84.89516892 210.875 87.8125 C215.95984561 92.85055255 220.93076606 98.09273044 225 104 C225 104.99 225 105.98 225 107 C224.43192627 107.13051758 223.86385254 107.26103516 223.27856445 107.39550781 C201.07508742 110.83348889 201.07508742 110.83348889 183 122 C177.10188635 135.74546143 177.85755588 149.90612144 182.125 163.953125 C183 167 183 167 183 170 C183.99 170.33 184.98 170.66 186 171 C193.1796095 178.74642078 196.26789677 190.60574473 196.4375 201 C196.23564211 205.91187523 195.46964788 210.31549739 194 215 C193.34 215 192.68 215 192 215 C191.690625 215.99 191.690625 215.99 191.375 217 C186.82887875 226.91881 178.64742944 232.75994145 169.8125 238.625 C169.03801514 239.1398999 168.26353027 239.6547998 167.46557617 240.18530273 C161.68170002 243.98650025 155.79622121 247.58519434 149.8125 251.0625 C149.03559814 251.51512207 148.25869629 251.96774414 147.45825195 252.43408203 C135.14618011 259.4813779 135.14618011 259.4813779 129.5625 259.1875 C128.386875 259.125625 127.21125 259.06375 126 259 C126 259.66 126 260.32 126 261 C118.61443289 263.76958767 111.3501509 264.15315084 103.5625 264.09765625 C102.79695801 264.0962413 102.03141602 264.09482635 101.24267578 264.09336853 C98.82840858 264.08782853 96.41423856 264.07528779 94 264.0625 C92.35026177 264.05747723 90.70052206 264.05291569 89.05078125 264.04882812 C85.03381745 264.03787886 81.01692513 264.02065666 77 264 C76.74736881 268.10288285 76.74736881 268.10288285 79.015625 271.53515625 C82.4136103 274.34160746 85.87025377 276.38054201 89.75 278.4375 C94.24823877 280.87785033 98.59781506 283.305219 102.75 286.3125 C107.73210682 289.73829155 113.18504469 291.47884641 119 293 C119.65548828 293.17877686 120.31097656 293.35755371 120.98632812 293.54174805 C128.67456513 295.3810588 136.41203604 295.33781642 144.26855469 295.31567383 C146.62741642 295.31249675 148.98504091 295.33610522 151.34375 295.36132812 C152.86718594 295.3636003 154.3906252 295.364305 155.9140625 295.36328125 C156.95344467 295.37709587 156.95344467 295.37709587 158.01382446 295.39118958 C163.33448405 295.34156539 167.15670914 293.9996799 172 292 C173.65672637 291.62033354 175.32070245 291.26239024 177 291 C177 290.34 177 289.68 177 289 C180.44670839 287.03602654 183.89731742 285.07910693 187.3515625 283.12841797 C189.09842153 282.1400382 190.84220623 281.14623121 192.5859375 280.15234375 C193.69453125 279.52714844 194.803125 278.90195312 195.9453125 278.2578125 C197.46922607 277.39373779 197.46922607 277.39373779 199.02392578 276.51220703 C205.19130684 273.37842867 211.1188091 271.76138564 218 273 C222.31266825 275.27095654 225.30389695 277.95584543 228 282 C228 282.99 228 283.98 228 285 C228.66 285 229.32 285 230 285 C238.24744014 300.28721939 235.49091145 314.98107924 231 331 C230.34 331 229.68 331 229 331 C228.91229617 334.85402129 228.85937265 338.70778291 228.8125 342.5625 C228.77479492 344.19155273 228.77479492 344.19155273 228.73632812 345.85351562 C228.67913116 352.12611652 229.14569202 356.41874162 232 362 C232 362.99 232 363.98 232 365 C232.66 365 233.32 365 234 365 C235.45062773 367.07952973 236.7705499 369.13767881 238.0625 371.3125 C238.42666016 371.90740234 238.79082031 372.50230469 239.16601562 373.11523438 C240.74076739 375.7204152 242.03422901 378.10268702 243 381 C241.60598171 383.45684432 240.17892228 385.69635456 238.5625 388 C238.10311035 388.66990967 237.6437207 389.33981934 237.17041016 390.0300293 C235.79280117 392.02911422 234.39971569 394.01634759 233 396 C232.28457031 397.01707031 231.56914063 398.03414063 230.83203125 399.08203125 C226.42992144 405.22389704 221.77543272 411.14501467 217 417 C214.43034051 416.57172342 212.2735215 416.13909632 209.94140625 414.953125 C205.09705433 412.57481138 199.12341949 413.90803075 194.046875 414.98828125 C173.4520722 418.83053092 152.54166 417.19428991 134.61328125 405.9375 C130.36632484 402.78878493 127.14110795 399.23337226 124 395 C123.37222656 394.154375 122.74445313 393.30875 122.09765625 392.4375 C117.43795207 385.65974846 115.01945442 378.92855365 113 371 C112.8340332 370.35305176 112.66806641 369.70610352 112.49707031 369.03955078 C109.59264784 357.68069781 109.59264784 357.68069781 108.328125 351.9609375 C106.5487476 344.43113314 103.16237213 338.48174271 99 332 C98.6189209 331.39575195 98.2378418 330.79150391 97.84521484 330.16894531 C89.1490259 315.17283105 89.1490259 315.17283105 76 305 C72.83304044 304.83275263 72.83304044 304.83275263 70 305 C69.73291598 309.18431635 69.93865543 312.15521361 71.484375 316.0625 C73.33213204 321.42170756 73.49573997 326.43121537 73.4375 332.0625 C73.43210205 333.06385986 73.4267041 334.06521973 73.42114258 335.09692383 C73.22188264 344.94099476 72.41644125 356.097462 66 364 C65.62875 365.010625 65.2575 366.02125 64.875 367.0625 C58.06825823 383.48288737 40.23183063 394.1923063 26.08203125 403.61083984 C23.68078536 405.21298444 21.30272305 406.84516513 18.9375 408.5 C18.19242187 409.01304687 17.44734375 409.52609375 16.6796875 410.0546875 C14.42091433 411.69443828 12.24896568 413.39009462 10.0703125 415.1328125 C-1.45865956 424.16696551 -11.64999284 428.0234816 -25.9609375 430.515625 C-30.77232603 431.35645018 -34.49195132 432.6558049 -38.875 434.875 C-46.81463098 438.73676134 -55.05970281 440.02772701 -63.69580078 441.57080078 C-72.03286792 443.00397757 -72.03286792 443.00397757 -79.8828125 445.98193359 C-82.01287726 447.00619213 -83.8778044 447.52880527 -86.1875 448 C-86.96867188 448.165 -87.74984375 448.33 -88.5546875 448.5 C-90.18489583 448.83333333 -91.81510417 449.16666667 -93.4453125 449.5 C-94.22648438 449.665 -95.00765625 449.83 -95.8125 450 C-96.52019531 450.144375 -97.22789062 450.28875 -97.95703125 450.4375 C-100.14958063 451.04118472 -102.00248043 451.92268607 -104 453 C-104 453.66 -104 454.32 -104 455 C-105.53140625 455.59554687 -105.53140625 455.59554687 -107.09375 456.203125 C-110.96530995 457.86625991 -114.21316052 460.13591996 -117.5 462.75 C-118.34256348 463.41044312 -118.34256348 463.41044312 -119.20214844 464.08422852 C-127.04235405 469.9396248 -127.04235405 469.9396248 -132 478 C-135.83645141 477.41553226 -138.61031503 476.30049976 -141.94921875 474.33984375 C-142.87516846 473.79730957 -143.80111816 473.25477539 -144.75512695 472.69580078 C-145.72281006 472.11556152 -146.69049316 471.53532227 -147.6875 470.9375 C-148.67903076 470.34694824 -149.67056152 469.75639648 -150.69213867 469.14794922 C-157.26472534 465.180189 -163.21489021 461.04923476 -169 456 C-170.41043249 454.90856253 -171.82729448 453.82539043 -173.25 452.75 C-189.74852901 439.88576235 -205.1614084 425.55992249 -218 409 C-218.91845703 407.93458984 -218.91845703 407.93458984 -219.85546875 406.84765625 C-230.37925547 394.50119307 -238.62113986 379.62242776 -245.90380859 365.16210938 C-246.78135833 363.43124514 -247.67954669 361.71085071 -248.58447266 359.99414062 C-253.06411006 351.34026789 -256.57514233 342.62378985 -259.625 333.375 C-259.86023376 332.67110138 -260.09546753 331.96720276 -260.33782959 331.24197388 C-265.04846474 317.04081199 -267.9690642 302.83339261 -270 288 C-270.16471802 286.84395264 -270.16471802 286.84395264 -270.33276367 285.66455078 C-270.86364105 281.75296862 -271.11182285 277.94582794 -271.0625 274 C-271.05347656 273.05125 -271.04445313 272.1025 -271.03515625 271.125 C-271.02355469 270.42375 -271.01195312 269.7225 -271 269 C-269.824375 268.5978125 -269.824375 268.5978125 -268.625 268.1875 C-265.71885077 267.15185568 -265.71885077 267.15185568 -264 264 C-263.34 264 -262.68 264 -262 264 C-261.76667969 263.49210937 -261.53335938 262.98421875 -261.29296875 262.4609375 C-259.49894801 259.0463361 -257.42372689 255.85057371 -255.3125 252.625 C-254.90322266 251.97789062 -254.49394531 251.33078125 -254.07226562 250.6640625 C-248.90096404 242.78398389 -241.56818768 237.80987303 -234 232.375 C-233.23171875 231.81554687 -232.4634375 231.25609375 -231.671875 230.6796875 C-219.86898033 222.16875665 -211.49721863 220.6245802 -196.8125 222.75 C-188.27231013 224.38879319 -180.75715689 226.42936768 -174 232 C-171.52073627 233.65094076 -168.97838318 235.19607395 -166.4375 236.75 C-165.00971856 237.63559424 -163.58264153 238.52232508 -162.15625 239.41015625 C-161.45371094 239.84730957 -160.75117188 240.28446289 -160.02734375 240.73486328 C-152.30443077 245.55424371 -145.18976839 250.26541092 -139 257 C-138.21109375 257.74636719 -137.4221875 258.49273437 -136.609375 259.26171875 C-133.67490959 262.34115026 -131.47403177 265.55708051 -129.1875 269.125 C-128.30746401 270.46581264 -127.42594008 271.8056498 -126.54296875 273.14453125 C-126.11161621 273.80018066 -125.68026367 274.45583008 -125.23583984 275.13134766 C-115.7330163 289.50009744 -104.18831902 303.28215176 -86.69506836 307.56420898 C-84.15579365 308.07597552 -81.61315556 308.54842107 -79.0625 309 C-72.70888509 310.12995714 -67.00230777 311.61720684 -61 314 C-55.74467765 315.61345221 -50.25828089 315.22488977 -44.8125 315.25 C-43.71357422 315.270625 -42.61464844 315.29125 -41.48242188 315.3125 C-33.66374968 315.34979838 -27.74097426 314.01173293 -20.60766602 310.98486328 C-15.65180338 309.11313312 -10.42215115 308.22154205 -5.25 307.125 C-4.01386963 306.86251465 -2.77773926 306.6000293 -1.50415039 306.32958984 C6.82441066 304.59281319 15.16773618 303.00704915 23.5625 301.625 C24.55282227 301.45758301 25.54314453 301.29016602 26.56347656 301.11767578 C34.76255126 299.82535471 42.84244698 299.1685449 51 301 C51 299.35 51 297.7 51 296 C50.45287354 295.90501221 49.90574707 295.81002441 49.34204102 295.7121582 C33.59327144 292.94128249 18.68917369 289.00210504 3.5703125 283.83203125 C1.32444626 283.10502592 -0.88687626 282.5187681 -3.1875 282 C-25.74667984 276.08283808 -42.84195293 259.81931372 -55.1796875 240.8046875 C-56.25789576 239.14341382 -57.35892627 237.49601544 -58.5078125 235.8828125 C-61.8745294 231.02425697 -63.18160403 226.20289756 -64.421875 220.44140625 C-64.75863293 218.06631998 -64.75863293 218.06631998 -66 217 C-66.45311916 213.97920562 -66.77357948 211.04172468 -67 208 C-67.07863281 206.9996875 -67.15726563 205.999375 -67.23828125 204.96875 C-67.79955649 191.75472712 -62.35361385 179.18961567 -53.625 169.3125 C-52.75875 168.549375 -51.8925 167.78625 -51 167 C-50.3915625 166.4121875 -49.783125 165.824375 -49.15625 165.21875 C-45.96246974 162.22151006 -43.38341531 159.80582941 -39.0625 158.75 C-38.051875 158.5025 -37.04125 158.255 -36 158 C-35.67 157.01 -35.34 156.02 -35 155 C-33.47216797 153.71655273 -33.47216797 153.71655273 -31.4921875 152.43359375 C-30.76056396 151.95341797 -30.02894043 151.47324219 -29.27514648 150.97851562 C-28.48309814 150.46998047 -27.6910498 149.96144531 -26.875 149.4375 C-25.21743051 148.35289118 -23.55987868 147.26825539 -21.90234375 146.18359375 C-21.07202637 145.64460449 -20.24170898 145.10561523 -19.38623047 144.55029297 C-16.05649985 142.38702415 -12.74375712 140.19893265 -9.4375 138 C-8.83591064 137.60095459 -8.23432129 137.20190918 -7.61450195 136.79077148 C-2.13372837 133.13425751 3.22073043 129.30709124 8.57421875 125.4675293 C12.77965399 122.47922928 17.05377523 119.70617232 21.48095703 117.05859375 C28.55029355 112.82660999 34.03575056 108.70813098 39 102 C39.62261719 101.26652344 40.24523437 100.53304687 40.88671875 99.77734375 C51.07772209 86.97983641 51.33212718 69.64453792 50 54 C48.47528831 43.08668038 42.78518486 33.64031329 34.17797852 26.81298828 C31.4938785 24.81270307 28.75011653 22.90866296 26 21 C24.40838242 19.73955751 22.82402957 18.46983877 21.25 17.1875 C17.08725747 13.93368657 12.64507845 11.48843488 8 9 C3.44372849 6.34907839 1.73928582 4.91853849 0 0 Z " fill="#00A7F1" transform="translate(300,24)"/>
<path d="M0 0 C5.0767473 0.15864835 7.98520243 1.3093993 11.6875 4.8203125 C16.84597055 10.48204847 20.97565348 16.82895704 25.04785156 23.29199219 C26.20063264 25.11715085 27.37490436 26.9265936 28.5546875 28.734375 C32.41285571 34.76894579 35.42638785 40.27892983 37.25 47.1953125 C37.56453125 48.26523437 37.8790625 49.33515625 38.203125 50.4375 C39.86945362 56.1204267 41.42244993 61.81361301 42.8125 67.5703125 C46.2345057 81.33114395 52.64515955 94.64675754 65.02197266 102.39599609 C83.1304605 113.00825145 104.5211937 113.95370999 124.87768555 109.65625 C132.72281541 108.13195184 138.23945264 109.48287135 145.25 113.1953125 C145.58 112.2053125 145.91 111.2153125 146.25 110.1953125 C146.58 110.8553125 146.91 111.5153125 147.25 112.1953125 C142.25 117.1953125 142.25 117.1953125 140 119.3828125 C138.44995449 120.96808632 136.9245303 122.58167185 135.49609375 124.27734375 C130.69571376 129.91574074 125.54999362 134.65000676 119.8125 139.3203125 C119.10182373 139.90103516 118.39114746 140.48175781 117.65893555 141.08007812 C112.51179749 145.1953125 112.51179749 145.1953125 110.25 145.1953125 C109.98477539 145.8025415 109.71955078 146.40977051 109.44628906 147.03540039 C108.18847993 149.30638761 107.20238164 150.26700696 105.109375 151.75390625 C104.46170166 152.21595459 103.81402832 152.67800293 103.14672852 153.15405273 C102.43830811 153.64204346 101.7298877 154.13003418 101 154.6328125 C100.25999756 155.14851807 99.51999512 155.66422363 98.75756836 156.19555664 C86.17207483 164.82046236 72.94586736 172.48550907 59.25 179.1953125 C58.00058767 179.83454306 56.75183381 180.47506314 55.50390625 181.1171875 C34.80429905 191.50060345 8.70842062 201.61544143 -14.75 202.1953125 C-14.75 202.8553125 -14.75 203.5153125 -14.75 204.1953125 C-50.70670424 211.76090891 -90.9674691 211.41885559 -126.75 203.1953125 C-127.43199463 203.04022217 -128.11398926 202.88513184 -128.81665039 202.7253418 C-154.58113841 196.83354256 -180.48219078 188.97225215 -203.75 176.1953125 C-204.08 175.5353125 -204.41 174.8753125 -204.75 174.1953125 C-200.68291927 164.97659617 -190.07172334 157.26601592 -181.75 152.1953125 C-178.3828125 151.44140625 -178.3828125 151.44140625 -175.75 151.1953125 C-175.75 150.5353125 -175.75 149.8753125 -175.75 149.1953125 C-172.99226049 146.69514665 -170.57963748 145.67373341 -166.9765625 144.87890625 C-166.0690625 144.67201172 -165.1615625 144.46511719 -164.2265625 144.25195312 C-163.28554687 144.04763672 -162.34453125 143.84332031 -161.375 143.6328125 C-155.72251708 142.37193406 -150.24269381 141.04360024 -144.75 139.1953125 C-141.8672766 138.48753295 -138.96588715 137.87444216 -136.0625 137.2578125 C-123.07136548 134.55984377 -123.07136548 134.55984377 -110.75390625 129.78515625 C-103.51503044 126.44343622 -96.02517549 125.07026069 -88.24609375 123.5234375 C-78.84473998 121.53021762 -71.91378686 118.13355692 -64.375 112.1953125 C-59.12321124 108.16580706 -53.73066677 104.40665134 -48.25 100.6953125 C-28.60569027 87.82441797 -28.60569027 87.82441797 -12.94140625 70.6640625 C-12.54824219 70.179375 -12.15507812 69.6946875 -11.75 69.1953125 C-11.09 69.1953125 -10.43 69.1953125 -9.75 69.1953125 C-9.57984375 68.62683594 -9.4096875 68.05835938 -9.234375 67.47265625 C-8.03063104 63.6373231 -6.87044969 60.39104324 -4.75 56.9453125 C0.36314566 48.21363299 0.54032315 38.28664473 0.625 28.4453125 C0.64578613 26.9902832 0.64578613 26.9902832 0.66699219 25.50585938 C0.6308191 19.93520408 -0.02689422 15.35118535 -2.08251953 10.15917969 C-3.13540929 7.06135773 -3.02024518 4.43825463 -2.75 1.1953125 C-1.75 0.1953125 -1.75 0.1953125 0 0 Z " fill="#125F28" transform="translate(371.75,327.8046875)"/>
<path d="M0 0 C4.58318788 3.24055418 7.36489048 6.96625127 10.4375 11.5625 C10.9219458 12.27921875 11.4063916 12.9959375 11.90551758 13.734375 C15.6364423 19.31791843 18.9762871 25.00147521 22 31 C22.61791308 32.18780008 23.2364445 33.37527863 23.85546875 34.5625 C29.14321086 44.80798563 33.71268037 55.30120845 38 66 C38.47034668 67.15822266 38.47034668 67.15822266 38.95019531 68.33984375 C42.59166838 77.38442399 45.56075514 86.43052494 47.75 95.9375 C47.93651123 96.74550049 48.12302246 97.55350098 48.31518555 98.38598633 C48.93434648 101.24901536 49.47693502 104.11773159 50 107 C50.1890239 108.02225174 50.1890239 108.02225174 50.38186646 109.06515503 C52.8664483 122.8093469 53.52393562 136.2386518 53.4375 150.1875 C53.43479095 151.21670563 53.43208191 152.24591125 53.42929077 153.30630493 C53.36718322 168.88472213 52.60042513 183.78520822 49 199 C48.79149414 199.92248535 48.58298828 200.8449707 48.36816406 201.79541016 C45.52604373 214.27781233 41.86968237 226.15704176 37 238 C36.49654053 239.2379834 36.49654053 239.2379834 35.98291016 240.50097656 C31.07575006 252.49210457 25.65369113 263.87905525 19 275 C15.99947935 272.11042297 13.35782881 269.37459523 11.1875 265.8125 C10.76855469 265.13832031 10.34960938 264.46414063 9.91796875 263.76953125 C9 262 9 262 9 260 C8.34 260 7.68 260 7 260 C3.44796487 252.66909731 2.44194238 246.59794466 2.6875 238.5 C2.69716797 237.51257813 2.70683594 236.52515625 2.71679688 235.5078125 C2.82970518 228.34058964 2.82970518 228.34058964 4 226 C4.66 226 5.32 226 6 226 C6.04898438 225.443125 6.09796875 224.88625 6.1484375 224.3125 C6.22320313 223.549375 6.29796875 222.78625 6.375 222 C6.44460938 221.2575 6.51421875 220.515 6.5859375 219.75 C7 217 7 217 8.015625 213.2109375 C9.10032868 208.98505084 9.3829694 204.97679111 9.375 200.625 C9.37693359 199.51789673 9.37693359 199.51789673 9.37890625 198.38842773 C9.27494399 192.9971577 8.28434622 188.6624092 5.875 183.78515625 C5 182 5 182 5 180 C4.34 180 3.68 180 3 180 C2.649375 179.113125 2.29875 178.22625 1.9375 177.3125 C-0.44141735 173.24531872 -2.67420379 170.91083103 -7 169 C-18.06549258 166.86487979 -27.90230467 173.25677984 -37 178.75 C-38.66437328 179.74862397 -40.33093259 180.74361659 -42 181.734375 C-42.721875 182.16975586 -43.44375 182.60513672 -44.1875 183.05371094 C-46 184 -46 184 -48 184 C-48 184.66 -48 185.32 -48 186 C-54.93692976 189.0522491 -60.95076944 191.31080322 -68.64453125 191.3359375 C-69.37258469 191.3425943 -70.10063812 191.3492511 -70.85075378 191.35610962 C-72.3912811 191.36619891 -73.93185179 191.3709278 -75.47241211 191.37060547 C-77.76820649 191.37491682 -80.06197496 191.41109745 -82.35742188 191.44921875 C-100.67818522 191.58944816 -116.39847409 187.2091743 -131.5625 176.64453125 C-135.68767161 173.86136259 -139.99803896 171.36958392 -144.27734375 168.83203125 C-147 167 -147 167 -149 164 C-148.625 161.3125 -148.625 161.3125 -148 159 C-146.99211426 158.98018066 -145.98422852 158.96036133 -144.94580078 158.93994141 C-141.16220514 158.86315793 -137.37895818 158.77456084 -133.59570312 158.68261719 C-131.96654201 158.64462489 -130.33730548 158.6097235 -128.70800781 158.578125 C-116.72742579 158.40176661 -116.72742579 158.40176661 -104.94091797 156.41552734 C-103 156 -103 156 -99 156 C-99 155.34 -99 154.68 -99 154 C-98.37996094 153.9484375 -97.75992188 153.896875 -97.12109375 153.84375 C-78.07531649 151.40411623 -50.089685 133.68039359 -38.21484375 118.7421875 C-36.25459474 115.93102655 -34.60625725 113.02717713 -33 110 C-32.34 110 -31.68 110 -31 110 C-28.77654668 95.82548506 -29.23840234 80.80866239 -37.6875 68.5625 C-39.73513566 65.98059911 -39.73513566 65.98059911 -42 65 C-47.84619477 49.09126394 -49.62758332 33.01177208 -43 17 C-37.17877373 8.82080866 -25.45837997 7.18235373 -16.3125 4.8125 C-15.29349609 4.53986328 -14.27449219 4.26722656 -13.22460938 3.98632812 C-12.23912109 3.72916016 -11.25363281 3.47199219 -10.23828125 3.20703125 C-8.908573 2.85862183 -8.908573 2.85862183 -7.55200195 2.50317383 C-4.96711794 1.9935167 -2.62731617 1.90877169 0 2 C0 1.34 0 0.68 0 0 Z " fill="#125F29" transform="translate(525,129)"/>
<path d="M0 0 C0.66773438 0.01256836 1.33546875 0.02513672 2.0234375 0.03808594 C41.53472702 0.89931956 81.1389835 9.41412352 117 26 C118.01416992 26.46599609 119.02833984 26.93199219 120.07324219 27.41210938 C138.71168528 36.02321796 155.97860751 45.13860578 172 58 C173.61616319 59.24059671 175.24069085 60.46961821 176.8659668 61.69824219 C211.29161429 87.80680138 211.29161429 87.80680138 220.421875 103.43359375 C222.582948 106.94801197 225.33518071 109.73069393 228.16015625 112.71875 C230.05717082 115.07088696 231.03287386 117.15374275 232 120 C232.66 120 233.32 120 234 120 C234.268125 120.49886719 234.53625 120.99773437 234.8125 121.51171875 C237.33373026 126.13120971 240.00015008 130.6137729 242.8125 135.0625 C247.00805666 141.83206609 250.53036263 148.83560708 254.00439453 155.99560547 C254.95367592 157.90673842 255.94731493 159.78464146 256.96484375 161.66015625 C267.20939706 180.76301105 273.20810132 201.74238616 277 223 C277.15694336 223.85303711 277.31388672 224.70607422 277.47558594 225.58496094 C286.96178924 278.48329461 278.02319804 334.14218561 253.22802734 381.60546875 C252.20241757 383.60530586 251.23083992 385.61093625 250.30078125 387.65625 C246.6012903 395.65724879 241.97519915 402.90026725 237.125 410.25 C236.13463745 411.75989502 236.13463745 411.75989502 235.12426758 413.30029297 C231.14023882 419.23262266 226.85845865 424.56900553 222 429.80664062 C219.58222497 432.45816539 217.52954991 435.21121512 215.4375 438.125 C211.27831132 443.71794893 206.60565159 448.69289067 201.6875 453.625 C201.00550537 454.31223145 200.32351074 454.99946289 199.62084961 455.70751953 C196.2557701 459.02581007 193.12811381 461.65701649 189 464 C187.40710791 465.42507444 185.84710834 466.88734425 184.3125 468.375 C179.39479287 472.91853377 174.23171078 476.94539054 168.8125 480.875 C168.06460205 481.4220459 167.3167041 481.9690918 166.54614258 482.53271484 C154.71412269 491 154.71412269 491 150 491 C150 491.66 150 492.32 150 493 C140.4179408 498.81086592 130.5581044 503.7083308 120.3125 508.25 C118.64030396 508.9920166 118.64030396 508.9920166 116.93432617 509.74902344 C110.3050723 512.6516064 103.62134136 515.34356266 96.85180664 517.90112305 C94.6379199 518.75419249 92.47972191 519.6506365 90.3203125 520.62890625 C75.76175801 526.64073287 59.49510507 529.51810005 44 532 C43.09121094 532.14566406 42.18242187 532.29132812 41.24609375 532.44140625 C-26.0406313 542.82920386 -94.13793214 530.05213082 -154 498 C-154 497.34 -154 496.68 -154 496 C-154.53496094 495.90074219 -155.06992188 495.80148437 -155.62109375 495.69921875 C-173.97678193 490.3040329 -190.98411507 473.41300448 -205 461 C-205.7425 460.36835938 -206.485 459.73671875 -207.25 459.0859375 C-214.9990439 452.49300095 -222.46381101 445.57332074 -228 437 C-229.64302953 435.31002677 -231.31471312 433.64783606 -233 432 C-237.97150355 426.85644077 -242.31932743 421.96179694 -245.578125 415.578125 C-247.40721979 412.26163444 -249.54892615 409.18292714 -251.6875 406.0625 C-288.59339848 351.3888803 -300.52120688 282.7832522 -288.125 218.38671875 C-286.44631168 210.15028732 -284.40351115 202.05389954 -282 194 C-281.75411133 193.17322754 -281.50822266 192.34645508 -281.25488281 191.49462891 C-275.77563951 173.41037608 -268.81711127 155.66601663 -258.0078125 140.0703125 C-256.4862523 137.7435687 -255.27582625 135.60516732 -254.08203125 133.12109375 C-251.96534121 128.76747074 -249.34769222 124.88733931 -246.5625 120.9375 C-245.86543945 119.93493164 -245.86543945 119.93493164 -245.15429688 118.91210938 C-244.22711561 117.58146849 -243.29568761 116.25377579 -242.35986328 114.92919922 C-241.46945039 113.66599587 -240.58725503 112.39695028 -239.71435547 111.12158203 C-237.10297338 107.34890537 -234.31869203 104.19577751 -231 101 C-228.58211566 98.4790583 -226.19925354 95.92539586 -223.8125 93.375 C-223.14831055 92.66859375 -222.48412109 91.9621875 -221.79980469 91.234375 C-218.88270441 88.12355551 -215.97991084 85.00931405 -213.18359375 81.7890625 C-208.50174783 76.42335144 -203.82540113 72.09368635 -197.953125 68.05859375 C-193.92192533 65.24848499 -190.08304848 62.20761851 -186.23901367 59.14819336 C-182.21697541 56 -182.21697541 56 -180 56 C-180 55.34 -180 54.68 -180 54 C-178.11501843 52.47985357 -176.24917855 51.10588408 -174.25 49.75 C-173.65654785 49.34450928 -173.0630957 48.93901855 -172.45166016 48.52124023 C-167.94053224 45.50081376 -163.31545838 42.98543211 -158.41015625 40.65234375 C-154.97715331 38.98892995 -151.61698816 37.22312477 -148.25244141 35.42675781 C-116.19518205 18.32356521 -84.05049956 8.28044032 -48 3 C-46.62615008 2.78482242 -45.25243541 2.56877814 -43.87890625 2.3515625 C-29.4242255 0.20436557 -14.60127365 -0.36838076 0 0 Z M-61 16 C-62.69793701 16.32145996 -62.69793701 16.32145996 -64.43017578 16.64941406 C-83.10451512 20.2496024 -101.59255302 25.23397048 -119 33 C-119 33.66 -119 34.32 -119 35 C-119.67160156 34.9278125 -120.34320313 34.855625 -121.03515625 34.78125 C-124.98956746 35.07301157 -127.9887695 36.68722715 -131.4375 38.5 C-132.13472168 38.85731201 -132.83194336 39.21462402 -133.55029297 39.58276367 C-139.43717067 42.63015916 -145.19441279 45.88936521 -150.9140625 49.23828125 C-153.8949804 50.94004577 -156.91584298 52.49496842 -160 54 C-160 54.66 -160 55.32 -160 56 C-161.65 56.33 -163.3 56.66 -165 57 C-165 57.66 -165 58.32 -165 59 C-166.32 59.33 -167.64 59.66 -169 60 C-169 60.66 -169 61.32 -169 62 C-170.06927734 62.37318359 -170.06927734 62.37318359 -171.16015625 62.75390625 C-176.06675407 64.90687008 -180.08025722 68.41228045 -184.28808594 71.68066406 C-186.01475844 73.01137402 -187.75912268 74.31558938 -189.5078125 75.6171875 C-197.60370951 81.7136028 -204.40851852 88.3152972 -211 96 C-212.29045547 97.50104213 -213.58195891 99.00118463 -214.875 100.5 C-215.41125 101.12390625 -215.9475 101.7478125 -216.5 102.390625 C-218 104 -218 104 -220.875 106.25 C-223.18033109 108.14850796 -223.6869518 109.0782168 -224 112 C-224.66 112 -225.32 112 -226 112 C-235.75881106 121.99255504 -244.08916486 136.02927169 -249.81640625 148.71484375 C-251 151 -251 151 -252.65234375 152.56640625 C-254.45662073 154.15780868 -254.45662073 154.15780868 -254 158 C-254.66 158 -255.32 158 -256 158 C-266.63155156 180.8314086 -274.12653225 203.22519674 -278.47973633 228.05126953 C-278.81622847 229.95842677 -279.17896934 231.86121845 -279.57299805 233.75732422 C-281.55420113 244.27408644 -281.26632645 254.86787628 -281.20581055 265.53125 C-281.18742828 268.88809741 -281.18530227 272.24466971 -281.18554688 275.6015625 C-281.18063472 277.75260654 -281.17480773 279.90364872 -281.16796875 282.0546875 C-281.16685593 283.04959198 -281.1657431 284.04449646 -281.16459656 285.06954956 C-281.13005466 290.1509437 -280.8706557 294.99144996 -280 300 C-279.34 300 -278.68 300 -278 300 C-277.98582031 300.68320312 -277.97164063 301.36640625 -277.95703125 302.0703125 C-276.76075424 327.35378868 -268.07769101 355.53850531 -255.04492188 377.22167969 C-253.87798341 379.20765628 -252.78811437 381.22593972 -251.703125 383.2578125 C-243.14636794 399.22018565 -233.50856397 414.0491558 -221.34912109 427.50390625 C-220.13124305 428.85445939 -218.93348228 430.22308768 -217.73828125 431.59375 C-208.03115796 442.64659279 -197.64891484 453.0015405 -186 462 C-184.92683231 462.84082555 -183.8539264 463.68198529 -182.78125 464.5234375 C-179.5459168 467.04972158 -176.27939415 469.53114968 -173 472 C-172.21496094 472.59425781 -171.42992187 473.18851562 -170.62109375 473.80078125 C-153.45306348 486.31105026 -133.67606345 496.12052353 -114 504 C-112.97495361 504.41548096 -112.97495361 504.41548096 -111.92919922 504.83935547 C-99.51018499 509.8197385 -86.90748397 513.26198966 -73.89111328 516.3112793 C-70.90733891 517.02207372 -67.93666123 517.77604289 -64.96484375 518.53515625 C-44.97033991 523.51727712 -25.59418287 524.38300962 -5.0625 524.375 C-3.91676514 524.37672211 -2.77103027 524.37844421 -1.59057617 524.38021851 C1.7406434 524.37965254 5.07123136 524.36171491 8.40234375 524.3359375 C9.39225815 524.33353561 10.38217255 524.33113373 11.40208435 524.32865906 C17.51042805 524.24808119 23.31743584 523.59032744 29.32649231 522.48748779 C33.11690273 521.79634379 36.92526464 521.32890828 40.75 520.875 C41.45898438 520.78863281 42.16796875 520.70226562 42.8984375 520.61328125 C44.59867317 520.40649583 46.29929344 520.20287616 48 520 C48 519.34 48 518.68 48 518 C48.57363281 517.98582031 49.14726562 517.97164062 49.73828125 517.95703125 C64.89453641 517.10607307 79.69619248 511.67947121 93.92919922 506.71875 C95.88747044 506.03905765 97.85079906 505.37686593 99.81640625 504.71875 C107.57564976 502.06135815 114.73617216 498.78854632 122 495 C122.89460938 494.57332031 123.78921875 494.14664062 124.7109375 493.70703125 C140.01014924 486.40026486 154.49422056 477.22659843 168 467 C168.95003906 466.2884375 169.90007812 465.576875 170.87890625 464.84375 C171.57886719 464.2353125 172.27882813 463.626875 173 463 C173 462.34 173 461.68 173 461 C173.51949219 460.77699219 174.03898437 460.55398438 174.57421875 460.32421875 C177.92056016 458.49747199 180.83359064 456.17283153 183.8125 453.8125 C184.75017212 453.0704834 184.75017212 453.0704834 185.70678711 452.31347656 C192.00647363 447.27372735 197.23408875 442.25568503 201.74609375 435.5546875 C203 434 203 434 206.125 431.9375 C209.57217579 429.61440327 210.18393055 427.69043249 212 424 C213.35301013 422.1757786 214.75398818 420.38666512 216.1875 418.625 C227.78761733 403.92159583 238.39692884 388.14772753 246 371 C246.46092041 369.9795459 246.46092041 369.9795459 246.93115234 368.93847656 C249.01584527 364.317425 251.02208357 359.66767938 253 355 C253.36738281 354.16726563 253.73476563 353.33453125 254.11328125 352.4765625 C260.54753229 337.38387489 264.28169262 321.12652004 267 305 C267.17732666 304.03481445 267.35465332 303.06962891 267.53735352 302.07519531 C269.39543747 290.9183631 269.43996812 279.78580991 269.4375 268.5 C269.43910126 266.94529999 269.43910126 266.94529999 269.44073486 265.35919189 C269.41463379 247.75791415 268.09407785 231.17555369 264 214 C263.77538086 213.03610352 263.55076172 212.07220703 263.31933594 211.07910156 C260.17861786 198.01792029 255.33006704 185.72735528 250.02685547 173.40917969 C249.13504538 171.31683971 248.27767262 169.21652875 247.44140625 167.1015625 C243.82071906 158.13702822 239.08354865 150.05700159 234.08203125 141.81640625 C232.78900212 139.64579778 231.60603995 137.42720158 230.4375 135.1875 C225.19257432 125.68449877 217.94174408 117.61020143 210.55859375 109.7421875 C208.46018196 107.49320265 206.43354717 105.21389763 204.4375 102.875 C200.21402299 98.0001916 195.59114026 93.52470897 191 89 C190.22140625 88.19820313 189.4428125 87.39640625 188.640625 86.5703125 C168.98752635 67.44052122 145.55096538 52.85686041 121 41 C120.36513672 40.69223633 119.73027344 40.38447266 119.07617188 40.06738281 C112.3237244 36.43047001 112.3237244 36.43047001 105 35 C105 34.34 105 33.68 105 33 C88.28186581 25.6565205 70.91311284 21.45729986 53.0625 17.8125 C51.91064209 17.57466797 50.75878418 17.33683594 49.57202148 17.09179688 C30.38389032 13.30900523 11.42789786 11.43713507 -8.125 11.5625 C-9.65139099 11.56706207 -9.65139099 11.56706207 -11.20861816 11.57171631 C-28.13112928 11.64609734 -44.36263978 12.72781151 -61 16 Z " fill="#0E1111" transform="translate(309,12)"/>
<path d="M0 0 C0.82822266 0.03915527 1.65644531 0.07831055 2.50976562 0.11865234 C7.95439128 0.40263462 13.3363562 0.91568914 18.75 1.5625 C18.75 1.8925 18.75 2.2225 18.75 2.5625 C-1.94585465 2.69592894 -22.57003178 2.40768131 -43.25 1.5625 C-43.25 1.2325 -43.25 0.9025 -43.25 0.5625 C-28.77716915 -0.24555436 -14.48846168 -0.68727318 0 0 Z " fill="#777879" transform="translate(319.25,12.4375)"/>
<path d="M0 0 C-1.42062515 3.2268998 -3.14245441 5.39942512 -5.625 7.890625 C-6.33140625 8.59960938 -7.0378125 9.30859375 -7.765625 10.0390625 C-8.50296875 10.76867187 -9.2403125 11.49828125 -10 12.25 C-10.73734375 12.99507813 -11.4746875 13.74015625 -12.234375 14.5078125 C-13.29398437 15.56355469 -13.29398437 15.56355469 -14.375 16.640625 C-15.02210938 17.28547852 -15.66921875 17.93033203 -16.3359375 18.59472656 C-18 20 -18 20 -20 20 C-18.57937485 16.7731002 -16.85754559 14.60057488 -14.375 12.109375 C-13.66859375 11.40039062 -12.9621875 10.69140625 -12.234375 9.9609375 C-11.49703125 9.23132813 -10.7596875 8.50171875 -10 7.75 C-9.26265625 7.00492187 -8.5253125 6.25984375 -7.765625 5.4921875 C-6.70601562 4.43644531 -6.70601562 4.43644531 -5.625 3.359375 C-4.97789062 2.71452148 -4.33078125 2.06966797 -3.6640625 1.40527344 C-2 0 -2 0 0 0 Z " fill="#818282" transform="translate(521,453)"/>
<path d="M0 0 C0.66 0 1.32 0 2 0 C2.33 9.24 2.66 18.48 3 28 C2.34 28 1.68 28 1 28 C-0.25406138 22.21354356 -0.11186913 16.51131884 -0.0625 10.625 C-0.05798828 9.60277344 -0.05347656 8.58054687 -0.04882812 7.52734375 C-0.037103 5.01816806 -0.02069176 2.5091151 0 0 Z " fill="#818283" transform="translate(587,256)"/>
<path d="M0 0 C0.66 0.33 1.32 0.66 2 1 C-2.62 5.62 -7.24 10.24 -12 15 C-11.67 15.99 -11.34 16.98 -11 18 C-12.32 17.67 -13.64 17.34 -15 17 C-13.62731224 12.82289638 -11.77260976 10.418038 -8.625 7.375 C-7.85414063 6.61960937 -7.08328125 5.86421875 -6.2890625 5.0859375 C-4.268188 3.24438975 -2.22010488 1.59158204 0 0 Z " fill="#0D6A53" transform="translate(182,486)"/>
<path d="M0 0 C0.66 0 1.32 0 2 0 C0.54254576 3.36335594 -1.31117854 5.54534005 -3.9140625 8.109375 C-4.67460938 8.86347656 -5.43515625 9.61757812 -6.21875 10.39453125 C-7.0128125 11.17183594 -7.806875 11.94914062 -8.625 12.75 C-9.42679688 13.54277344 -10.22859375 14.33554688 -11.0546875 15.15234375 C-13.03202846 17.10614493 -15.01388909 19.05512103 -17 21 C-17.66 20.67 -18.32 20.34 -19 20 C-18.28714844 19.29875 -17.57429688 18.5975 -16.83984375 17.875 C-11.33034345 12.42712291 -6.02246352 6.90692251 -1 1 C-0.67 0.67 -0.34 0.34 0 0 Z " fill="#7C7D7D" transform="translate(103,86)"/>
<path d="M0 0 C2.03833424 1.2739589 4.03852126 2.61061923 6 4 C6 4.66 6 5.32 6 6 C6.59683594 6.2578125 7.19367188 6.515625 7.80859375 6.78125 C10.18085817 8.10058422 11.38413125 9.3874932 13.0625 11.5 C15.00872186 13.93664912 16.33393182 15.22262121 19 17 C19 17.66 19 18.32 19 19 C15.8804428 17.61314777 13.74144201 15.99810509 11.328125 13.59375 C10.33232422 12.60181641 10.33232422 12.60181641 9.31640625 11.58984375 C8.63449219 10.90019531 7.95257813 10.21054687 7.25 9.5 C6.55261719 8.81035156 5.85523437 8.12070312 5.13671875 7.41015625 C4.47800781 6.74886719 3.81929688 6.08757812 3.140625 5.40625 C2.53766602 4.80103516 1.93470703 4.19582031 1.31347656 3.57226562 C0 2 0 2 0 0 Z " fill="#7D7D7D" transform="translate(85,453)"/>
<path d="M0 0 C-1.11306535 3.33919605 -1.79885897 3.88095621 -4.52734375 5.91796875 C-5.59178711 6.71557617 -5.59178711 6.71557617 -6.67773438 7.52929688 C-7.79631836 8.35010742 -7.79631836 8.35010742 -8.9375 9.1875 C-9.67935547 9.74630859 -10.42121094 10.30511719 -11.18554688 10.88085938 C-16.73305861 15 -16.73305861 15 -19 15 C-17.66132935 10.98398804 -15.59056936 9.96897414 -12.1875 7.5 C-11.12917969 6.7265625 -10.07085937 5.953125 -8.98046875 5.15625 C-7.99691406 4.4446875 -7.01335937 3.733125 -6 3 C-5.25363281 2.4121875 -4.50726563 1.824375 -3.73828125 1.21875 C-2 0 -2 0 0 0 Z " fill="#717273" transform="translate(493,479)"/>
<path d="M0 0 C2.86562595 2.47906057 4.1617794 5.12161059 5.6875 8.5625 C6.12449219 9.53316406 6.56148437 10.50382812 7.01171875 11.50390625 C8 14 8 14 8 16 C8.66 16 9.32 16 10 16 C10 16.99 10 17.98 10 19 C10.66 19 11.32 19 12 19 C12.33 20.98 12.66 22.96 13 25 C9.15556643 21.48843897 7.19018071 17.06541832 4.8125 12.5 C4.11737305 11.19869141 4.11737305 11.19869141 3.40820312 9.87109375 C2.97056641 9.03707031 2.53292969 8.20304687 2.08203125 7.34375 C1.48225464 6.20196289 1.48225464 6.20196289 0.87036133 5.03710938 C0 3 0 3 0 0 Z " fill="#717374" transform="translate(39,383)"/>
<path d="M0 0 C3.2268998 1.42062515 5.39942512 3.14245441 7.890625 5.625 C8.59960938 6.33140625 9.30859375 7.0378125 10.0390625 7.765625 C10.76867187 8.50296875 11.49828125 9.2403125 12.25 10 C12.99507812 10.73734375 13.74015625 11.4746875 14.5078125 12.234375 C15.21164062 12.94078125 15.91546875 13.6471875 16.640625 14.375 C17.28547852 15.02210937 17.93033203 15.66921875 18.59472656 16.3359375 C20 18 20 18 20 20 C16.90379468 18.63362929 14.90719712 17.1094719 12.6171875 14.62890625 C12.00746094 13.97212891 11.39773438 13.31535156 10.76953125 12.63867188 C10.14433594 11.95353516 9.51914062 11.26839844 8.875 10.5625 C8.24207031 9.88123047 7.60914063 9.19996094 6.95703125 8.49804688 C4.40853863 5.73582717 2.09033386 3.13550079 0 0 Z " fill="#808181" transform="translate(501,87)"/>
<path d="M0 0 C0.66 0 1.32 0 2 0 C-1.76315831 8.63545802 -10.35044987 15.51351785 -17 22 C-17.66 21.67 -18.32 21.34 -19 21 C-18.34197388 20.35768433 -18.34197388 20.35768433 -17.6706543 19.70239258 C-15.67093991 17.74445459 -13.67919681 15.77859189 -11.6875 13.8125 C-10.99720703 13.13896484 -10.30691406 12.46542969 -9.59570312 11.77148438 C-6.1783087 8.38710826 -3.24714849 5.30771065 -1 1 C-0.67 0.67 -0.34 0.34 0 0 Z " fill="#2F3030" transform="translate(108,82)"/>
<path d="M0 0 C0.66 0.33 1.32 0.66 2 1 C-4.6 7.6 -11.2 14.2 -18 21 C-18 18 -18 18 -15.953125 15.6953125 C-14.61507812 14.42300781 -14.61507812 14.42300781 -13.25 13.125 C-9.88125508 9.90400705 -6.88854514 6.65425862 -4 3 C-1.75 1.1875 -1.75 1.1875 0 0 Z " fill="#0E4E23" transform="translate(114,92)"/>
<path d="M0 0 C0.66 0 1.32 0 2 0 C0.42879231 4.67791382 -2.13119616 8.29924729 -5 12.25 C-5.45117188 12.88679688 -5.90234375 13.52359375 -6.3671875 14.1796875 C-9.74034468 18.87017234 -9.74034468 18.87017234 -12 20 C-9.92864049 15.74614639 -7.48636408 11.77080592 -5 7.75 C-4.54882812 7.00492187 -4.09765625 6.25984375 -3.6328125 5.4921875 C-3.19710937 4.78835938 -2.76140625 4.08453125 -2.3125 3.359375 C-1.91675781 2.71452148 -1.52101563 2.06966797 -1.11328125 1.40527344 C-0.74589844 0.9415332 -0.37851562 0.47779297 0 0 Z " fill="#66676A" transform="translate(547,416)"/>
<path d="M0 0 C0 3.10551666 -0.5393715 4.35261084 -2 7 C-2.66 7 -3.32 7 -4 7 C-4.268125 7.5775 -4.53625 8.155 -4.8125 8.75 C-6.02929189 11.05550043 -7.30333879 13.02056192 -9 15 C-9.66 15 -10.32 15 -11 15 C-9.11408904 8.96508491 -5.24398161 3.49598774 0 0 Z " fill="#676868" transform="translate(76,116)"/>
<path d="M0 0 C1.32 0.33 2.64 0.66 4 1 C3.34 1 2.68 1 2 1 C2 1.66 2 2.32 2 3 C-0.1171875 4.5078125 -0.1171875 4.5078125 -2.875 6.125 C-3.77992188 6.66382813 -4.68484375 7.20265625 -5.6171875 7.7578125 C-8 9 -8 9 -10 9 C-10 8.34 -10 7.68 -10 7 C-9.34 7 -8.68 7 -8 7 C-8 6.34 -8 5.68 -8 5 C-6.865625 4.731875 -5.73125 4.46375 -4.5625 4.1875 C-3.386875 3.795625 -2.21125 3.40375 -1 3 C-0.67 2.01 -0.34 1.02 0 0 Z " fill="#595A5A" transform="translate(457,502)"/>
<path d="M0 0 C3.1489715 1.36911804 5.0478487 2.8752136 7.25 5.5 C8.03117187 6.41265625 8.03117187 6.41265625 8.828125 7.34375 C10 9 10 9 10 11 C6.8510285 9.63088196 4.9521513 8.1247864 2.75 5.5 C2.22921875 4.8915625 1.7084375 4.283125 1.171875 3.65625 C0 2 0 2 0 0 Z " fill="#8B8C8C" transform="translate(71,437)"/>
<path d="M0 0 C5.31027254 1.46032495 9.46330032 3.98320986 14 7 C11 8 11 8 8.30078125 6.78515625 C7.31464844 6.21667969 6.32851563 5.64820313 5.3125 5.0625 C4.31863281 4.49660156 3.32476562 3.93070313 2.30078125 3.34765625 C1.54152344 2.90292969 0.78226562 2.45820312 0 2 C0 1.34 0 0.68 0 0 Z " fill="#636465" transform="translate(452,52)"/>
<path d="M0 0 C0.66 0 1.32 0 2 0 C0.68139111 4.61513112 -1.21355437 8.09897612 -4 12 C-5 9 -5 9 -4.00390625 6.73828125 C-3.52824219 5.93777344 -3.05257812 5.13726562 -2.5625 4.3125 C-2.08941406 3.50425781 -1.61632812 2.69601562 -1.12890625 1.86328125 C-0.75636719 1.24839844 -0.38382813 0.63351562 0 0 Z " fill="#606262" transform="translate(554,404)"/>
<path d="M0 0 C3.34373475 0.55728913 6.03312999 1.35173889 9 3 C9 3.66 9 4.32 9 5 C9.66 5.33 10.32 5.66 11 6 C6.80639551 5.32902328 3.59665648 3.1441606 0 1 C0 0.67 0 0.34 0 0 Z " fill="#4E5050" transform="translate(144,502)"/>
<path d="M0 0 C0 0.99 0 1.98 0 3 C-1.32 3.33 -2.64 3.66 -4 4 C-4 4.66 -4 5.32 -4 6 C-4.99 6 -5.98 6 -7 6 C-7 5.34 -7 4.68 -7 4 C-2.52941176 0 -2.52941176 0 0 0 Z " fill="#515253" transform="translate(136,62)"/>
<path d="M0 0 C0.99 0.33 1.98 0.66 3 1 C0.60490662 3.89932357 -1.31245243 4.50168276 -5 5 C-5 4.34 -5 3.68 -5 3 C-4.01 3 -3.02 3 -2 3 C-2 2.34 -2 1.68 -2 1 C-1.34 0.67 -0.68 0.34 0 0 Z " fill="#636364" transform="translate(402,528)"/>
<path d="M0 0 C4.42857143 5.14285714 4.42857143 5.14285714 5 9 C4.34 9 3.68 9 3 9 C0.56839395 5.63316085 0 4.26649636 0 0 Z " fill="#656666" transform="translate(556,156)"/>
</svg>
